<?xml version="1.0" encoding="UTF-8"?>
<svg width="147px" height="35px" viewBox="0 0 147 35" version="1.1" xmlns="http://www.w3.org/2000/svg" xmlns:xlink="http://www.w3.org/1999/xlink">
    <!-- Generator: Sketch 51.2 (57519) - http://www.bohemiancoding.com/sketch -->
    <title>Group 17</title>
    <desc>Created with Sketch.</desc>
    <defs>
        <filter x="-1.4%" y="-2.9%" width="102.8%" height="111.8%" filterUnits="objectBoundingBox" id="filter-1">
            <feOffset dx="0" dy="1" in="SourceAlpha" result="shadowOffsetOuter1"></feOffset>
            <feGaussianBlur stdDeviation="0.5" in="shadowOffsetOuter1" result="shadowBlurOuter1"></feGaussianBlur>
            <feColorMatrix values="0 0 0 0 0   0 0 0 0 0   0 0 0 0 0  0 0 0 0.5 0" type="matrix" in="shadowBlurOuter1" result="shadowMatrixOuter1"></feColorMatrix>
            <feMerge>
                <feMergeNode in="shadowMatrixOuter1"></feMergeNode>
                <feMergeNode in="SourceGraphic"></feMergeNode>
            </feMerge>
        </filter>
        <polygon id="path-2" points="0 0.9303 27.555 0.9303 27.555 29 0 29"></polygon>
        <polygon id="path-4" points="0.265924063 0.5103 20.7295 0.5103 20.7295 29 0.265924063 29"></polygon>
        <polygon id="path-6" points="0.1638 0 7.8638 0 7.8638 32.9999 0.1638 32.9999"></polygon>
        <polygon id="path-8" points="0.2833 0.3698 27.618 0.3698 27.618 28 0.2833 28"></polygon>
    </defs>
    <g id="Page-1" stroke="none" stroke-width="1" fill="none" fill-rule="evenodd">
        <g id="Desktop-Copy-6" transform="translate(-105.000000, -41.000000)">
            <g id="Group-17" filter="url(#filter-1)" transform="translate(106.000000, 41.000000)">
                <g id="Group-3" transform="translate(0.000000, 4.000000)">
                    <mask id="mask-3" fill="white">
                        <use xlink:href="#path-2"></use>
                    </mask>
                    <g id="Clip-2"></g>
                    <path d="M19.855,4.8003 C19.855,3.7743 20.203,2.9033 20.9,2.1873 C21.596,1.4723 22.476,1.1153 23.54,1.1153 C24.64,1.1153 25.584,1.4723 26.373,2.1873 C27.161,2.9033 27.555,3.7743 27.555,4.8003 L27.555,24.9853 C27.555,26.0493 27.161,26.9843 26.373,27.7903 C25.584,28.5973 24.64,29.0003 23.54,29.0003 C22.916,29.0003 22.33,28.8173 21.78,28.4503 C21.23,28.0843 20.753,27.6443 20.35,27.1303 C19.433,27.6443 18.406,28.0843 17.27,28.4503 C16.133,28.8173 14.96,29.0003 13.75,29.0003 C11.88,29.0003 10.138,28.6703 8.525,28.0103 C6.911,27.3503 5.491,26.4523 4.263,25.3153 C3.034,24.1793 2.043,22.8403 1.293,21.3003 C0.541,19.7603 0.11,18.0923 0,16.2953 L0,4.6703 C0,3.6073 0.348,2.7173 1.045,2.0033 C1.741,1.2873 2.621,0.9303 3.685,0.9303 C4.748,0.9303 5.674,1.2873 6.462,2.0033 C7.251,2.7173 7.645,3.6073 7.645,4.6703 L7.645,16.2953 C7.938,17.7253 8.626,18.9173 9.708,19.8703 C10.789,20.8243 12.136,21.3003 13.75,21.3003 C15.216,21.3003 16.527,20.8603 17.683,19.9803 C18.837,19.1003 19.561,17.8723 19.855,16.2953 L19.855,4.8003 Z" id="Fill-1" fill="#FFFFFF" mask="url(#mask-3)"></path>
                </g>
                <g id="Group-6" transform="translate(29.000000, 4.000000)">
                    <mask id="mask-5" fill="white">
                        <use xlink:href="#path-4"></use>
                    </mask>
                    <g id="Clip-5"></g>
                    <path d="M19.9595,7.3853 C19.4825,8.2653 18.9325,8.8613 18.3095,9.1723 C17.6855,9.4843 17.0445,9.6133 16.3845,9.5573 C15.7245,9.5023 15.0455,9.3473 14.3495,9.0903 C13.6525,8.8343 12.9925,8.5953 12.3695,8.3753 C11.7455,8.1553 11.1685,7.9993 10.6375,7.9073 C10.1055,7.8163 9.6745,7.9353 9.3445,8.2653 C8.9405,8.7053 8.9405,9.0993 9.3445,9.4483 C9.7475,9.7963 10.3705,10.1543 11.2145,10.5203 C12.0575,10.8873 13.0295,11.3093 14.1295,11.7853 C15.2295,12.2623 16.2655,12.8493 17.2375,13.5453 C18.2085,14.2423 19.0335,15.0853 19.7125,16.0753 C20.3905,17.0653 20.7295,18.2573 20.7295,19.6503 C20.7295,21.7043 20.3445,23.3443 19.5745,24.5723 C18.8045,25.8013 17.8785,26.7453 16.7975,27.4053 C15.7155,28.0653 14.6055,28.4963 13.4695,28.6973 C12.3325,28.8983 11.3975,29.0003 10.6645,29.0003 C10.2245,29.0003 9.6195,28.9353 8.8495,28.8073 C8.0795,28.6783 7.2725,28.4873 6.4295,28.2303 C5.5855,27.9743 4.7425,27.6343 3.8995,27.2123 C3.0555,26.7913 2.3325,26.2873 1.7275,25.7003 C1.1225,25.1143 0.6905,24.4353 0.4345,23.6653 C0.1775,22.8953 0.2145,22.0153 0.5445,21.0253 C0.9845,20.1453 1.5255,19.5863 2.1675,19.3473 C2.8085,19.1093 3.4955,19.0543 4.2295,19.1823 C4.9625,19.3113 5.7325,19.5493 6.5395,19.8973 C7.3455,20.2463 8.1255,20.5573 8.8765,20.8323 C9.6285,21.1073 10.3435,21.2723 11.0215,21.3273 C11.7005,21.3823 12.2955,21.1903 12.8095,20.7503 C13.2855,20.2373 13.3405,19.7973 12.9745,19.4303 C12.6075,19.0643 11.9935,18.7153 11.1325,18.3853 C10.2705,18.0553 9.2805,17.6793 8.1625,17.2573 C7.0435,16.8363 5.9705,16.2953 4.9445,15.6353 C3.9175,14.9753 3.0555,14.1593 2.3595,13.1873 C1.6625,12.2163 1.3145,10.9973 1.3145,9.5303 C1.3145,7.8073 1.6445,6.3673 2.3045,5.2123 C2.9645,4.0573 3.7805,3.1323 4.7515,2.4353 C5.7235,1.7393 6.7875,1.2443 7.9425,0.9503 C9.0975,0.6573 10.1695,0.5103 11.1595,0.5103 C12.5525,0.5103 13.8825,0.7023 15.1475,1.0873 C16.4125,1.4723 17.4845,1.9773 18.3645,2.6003 C19.2445,3.2243 19.8495,3.9473 20.1795,4.7723 C20.5095,5.5973 20.4355,6.4683 19.9595,7.3853" id="Fill-4" fill="#FFFFFF" mask="url(#mask-5)"></path>
                </g>
                <path d="M64.4692,25.355 C66.2292,25.355 67.6682,24.777 68.7862,23.623 C69.9052,22.467 70.4642,21.01 70.4642,19.25 C70.4642,18.37 70.3172,17.545 70.0242,16.775 C69.7302,16.005 69.3182,15.336 68.7862,14.768 C68.2552,14.199 67.6222,13.741 66.8892,13.393 C66.1552,13.044 65.3492,12.87 64.4692,12.87 C63.5892,12.87 62.7732,13.044 62.0212,13.393 C61.2692,13.741 60.6192,14.199 60.0692,14.768 C59.5192,15.336 59.0882,16.005 58.7772,16.775 C58.4652,17.545 58.3092,18.37 58.3092,19.25 C58.3092,20.13 58.4652,20.937 58.7772,21.67 C59.0882,22.404 59.5192,23.045 60.0692,23.595 C60.6192,24.145 61.2692,24.576 62.0212,24.888 C62.7732,25.199 63.5892,25.355 64.4692,25.355 Z M78.2192,29.04 C78.2192,30.104 77.8702,31.029 77.1742,31.817 C76.4772,32.606 75.5972,33 74.5342,33 C73.6902,33 73.0032,32.817 72.4712,32.45 C71.9402,32.084 71.4542,31.644 71.0142,31.13 C70.0972,31.644 69.0702,32.084 67.9342,32.45 C66.7972,32.817 65.6422,33 64.4692,33 C62.5252,33 60.7102,32.634 59.0242,31.9 C57.3372,31.167 55.8802,30.167 54.6522,28.902 C53.4232,27.638 52.4512,26.171 51.7372,24.502 C51.0212,22.834 50.6642,21.084 50.6642,19.25 C50.6642,17.344 51.0212,15.547 51.7372,13.86 C52.4512,12.174 53.4232,10.707 54.6522,9.46 C55.8802,8.214 57.3372,7.232 59.0242,6.518 C60.7102,5.803 62.5252,5.445 64.4692,5.445 C66.3392,5.445 68.0902,5.785 69.7212,6.462 C71.3532,7.142 72.7822,8.076 74.0112,9.268 C75.2402,10.459 76.2302,11.862 76.9822,13.475 C77.7332,15.089 78.1452,16.83 78.2192,18.7 L78.2192,29.04 Z" id="Fill-7" fill="#FFFFFF"></path>
                <path d="M99.3838,19.1938 C99.3838,18.3138 99.2278,17.4988 98.9168,16.7468 C98.6048,15.9958 98.1828,15.3258 97.6518,14.7388 C97.1198,14.1528 96.4778,13.6938 95.7268,13.3638 C94.9748,13.0338 94.1588,12.8688 93.2788,12.8688 C91.7018,12.8688 90.3548,13.3828 89.2368,14.4088 C88.1178,15.4358 87.4488,16.6638 87.2288,18.0938 L87.2288,20.2388 C87.4488,21.7058 88.1178,22.9158 89.2368,23.8688 C90.3548,24.8228 91.7018,25.2988 93.2788,25.2988 C94.1588,25.2988 94.9748,25.1438 95.7268,24.8318 C96.4778,24.5208 97.1198,24.0888 97.6518,23.5388 C98.1828,22.9888 98.6048,22.3478 98.9168,21.6138 C99.2278,20.8808 99.3838,20.0738 99.3838,19.1938 M80.1858,24.3088 C79.7368,23.3238 79.5288,22.2408 79.5288,21.1578 L79.5288,3.7938 C79.5288,2.7308 79.8768,1.8508 80.5738,1.1538 C81.3108,0.4178 82.2528,0.0698 83.4008,0.1128 C84.1938,0.1418 84.9788,0.4008 85.6308,0.8528 C86.6948,1.5918 87.2288,2.5718 87.2288,3.7938 L87.2288,6.7638 C88.1818,6.3608 89.1348,6.0308 90.0888,5.7738 C91.0418,5.5178 92.1048,5.3888 93.2788,5.3888 C95.1488,5.3888 96.9178,5.7468 98.5868,6.4618 C100.2548,7.1768 101.7208,8.1578 102.9868,9.4038 C104.2518,10.6508 105.2498,12.1178 105.9838,13.8038 C106.7168,15.4908 107.0838,17.2878 107.0838,19.1938 C107.0838,21.0278 106.7168,22.7778 105.9838,24.4458 C105.2498,26.1148 104.2518,27.5818 102.9868,28.8468 C101.7208,30.1108 100.2548,31.1208 98.5868,31.8718 C96.9178,32.6238 95.1488,32.9988 93.2788,32.9988 C93.2788,32.9988 84.2738,33.2648 80.1858,24.3088" id="Fill-9" fill="#FFFFFF"></path>
                <g id="Group-13" transform="translate(108.000000, 0.000000)">
                    <mask id="mask-7" fill="white">
                        <use xlink:href="#path-6"></use>
                    </mask>
                    <g id="Clip-12"></g>
                    <path d="M7.8638,28.9849 C7.8638,30.0489 7.5148,30.9839 6.8188,31.7899 C6.1218,32.5969 5.2418,32.9999 4.1788,32.9999 C3.1148,32.9999 2.1798,32.5969 1.3738,31.7899 C0.5668,30.9839 0.1638,30.0489 0.1638,28.9849 L0.1638,3.7399 C0.1638,2.6769 0.5668,1.7879 1.3738,1.0729 C2.1798,0.3579 3.1148,-0.0001 4.1788,-0.0001 C5.2418,-0.0001 6.1218,0.3579 6.8188,1.0729 C7.5148,1.7879 7.8638,2.6769 7.8638,3.7399 L7.8638,28.9849 Z" id="Fill-11" fill="#FFFFFF" mask="url(#mask-7)"></path>
                </g>
                <g id="Group-16" transform="translate(117.000000, 5.000000)">
                    <mask id="mask-9" fill="white">
                        <use xlink:href="#path-8"></use>
                    </mask>
                    <g id="Clip-15"></g>
                    <path d="M18.0483,11.2598 C18.5613,11.2598 18.8183,10.9848 18.8183,10.4348 C18.8183,10.3248 18.7353,10.1238 18.5703,9.8298 C18.4063,9.5368 18.1313,9.2348 17.7463,8.9228 C17.3613,8.6118 16.8743,8.3448 16.2883,8.1248 C15.7013,7.9048 14.9683,7.7948 14.0883,7.7948 C13.2443,7.7948 12.5023,7.9048 11.8613,8.1248 C11.2193,8.3448 10.6873,8.6118 10.2663,8.9228 C9.8443,9.2348 9.5323,9.5368 9.3313,9.8298 C9.1293,10.1238 9.0283,10.3248 9.0283,10.4348 C9.0283,10.7288 9.1293,10.9398 9.3313,11.0678 C9.5323,11.1968 9.7063,11.2598 9.8533,11.2598 L18.0483,11.2598 Z M14.0883,0.3698 C16.6183,0.3698 18.7443,0.8468 20.4683,1.7998 C22.1913,2.7538 23.5843,3.8998 24.6483,5.2378 C25.7113,6.5758 26.4713,7.9688 26.9303,9.4178 C27.3893,10.8658 27.6183,12.0848 27.6183,13.0748 C27.6183,13.7718 27.5533,14.3218 27.4263,14.7248 C27.2983,15.1288 27.1043,15.4768 26.8483,15.7698 C26.5543,16.0638 26.1973,16.2748 25.7763,16.4028 C25.3543,16.5308 24.8313,16.5948 24.2083,16.5948 L9.8533,16.5948 C9.7063,16.5948 9.5323,16.6498 9.3313,16.7598 C9.1293,16.8698 9.0283,17.0538 9.0283,17.3098 C9.0283,17.6398 9.1743,18.0068 9.4683,18.4098 C9.7613,18.8138 10.1923,19.1798 10.7613,19.5098 C11.3293,19.8398 12.0263,20.0878 12.8513,20.2528 C13.6763,20.4178 14.6193,20.4268 15.6833,20.2798 C16.7463,20.2798 17.6263,20.6288 18.3233,21.3248 C19.0193,22.0218 19.3683,22.9018 19.3683,23.9648 C19.3683,25.0288 18.9923,25.9638 18.2413,26.7698 C17.4893,27.5768 16.6363,27.9798 15.6833,27.9798 C13.1893,28.0898 10.9813,27.7508 9.0563,26.9628 C7.1313,26.1748 5.5173,25.1018 4.2153,23.7448 C2.9143,22.3888 1.9333,20.8398 1.2733,19.0968 C0.6133,17.3568 0.2833,15.6238 0.2833,13.8998 C0.2833,11.6638 0.7323,9.6928 1.6313,7.9878 C2.5293,6.2818 3.6563,4.8708 5.0133,3.7528 C6.3693,2.6348 7.8543,1.7908 9.4683,1.2218 C11.0813,0.6548 12.6213,0.3698 14.0883,0.3698 Z" id="Fill-14" fill="#FFFFFF" mask="url(#mask-9)"></path>
                </g>
            </g>
        </g>
    </g>
</svg>